<svg t="1782378219881" class="icon" viewBox="0 0 1029 1024" version="1.1" xmlns="http://www.w3.org/2000/svg" p-id="4970" width="200" height="200"><path d="M861.9 923.9H168.5c-90.2 0-163.7-73.4-163.7-163.7V288.7C4.8 198.4 78.2 125 168.5 125h693.4c90.2 0 163.7 73.4 163.7 163.7v471.5c0 90.2-73.4 163.7-163.7 163.7zM168.5 165c-68.2 0-123.7 55.5-123.7 123.7v471.5c0 68.2 55.5 123.7 123.7 123.7h693.4c68.2 0 123.7-55.5 123.7-123.7V288.7c0-68.2-55.5-123.7-123.7-123.7H168.5z" fill="#1afa29" p-id="4971"></path><path d="M852.9 676.8c-1-0.2-1.9 0-2.9 0-66.3 0-124.8 53.8-125.4 54.5-7.2 8.7-19.2 24.9-31 25.5-11.7 0.6-16-3.5-24.2-11.4L380.5 465.9l-352 292.5s-31.3-37.8-14.7-51.8l339.5-283.5c16.2-13.5 40.9-12.7 56 1.8l281.3 270.3c6.8-6 14.6-12.5 23.2-18.8 46.2-34.3 95.2-51.6 141.8-50.1 30.6 1 60 9.8 87.4 26.3 28.9 17.3 55.9 43.5 80.1 77.6 12.4 17.4 7.3 40.9-11.3 52.4-6.6 4.1 8 0 0 0 0.1 0-68.6-91.7-158.9-105.8zM726.4 507.5c-76 0-137.8-61.8-137.8-137.8 0-76 61.8-137.8 137.8-137.8s137.8 61.8 137.8 137.8c0 76-61.8 137.8-137.8 137.8z m0-235.6c-53.9 0-97.8 43.9-97.8 97.8s43.9 97.8 97.8 97.8 97.8-43.9 97.8-97.8c0-54-43.9-97.8-97.8-97.8z" fill="#1afa29" p-id="4972"></path></svg>